<svg width="12" height="12" viewBox="0 0 12 12" fill="none" xmlns="http://www.w3.org/2000/svg">
<path id="Union" fill-rule="evenodd" clip-rule="evenodd" d="M6.67113 1.43591C6.67113 0.909312 6.24424 0.482422 5.71765 0.482422C5.19105 0.482422 4.76416 0.909313 4.76416 1.43591V4.24799C4.76416 4.80028 4.31645 5.24799 3.76416 5.24799H0.953485C0.42689 5.24799 0 5.67488 0 6.20148C0 6.72807 0.42689 7.15496 0.953485 7.15496H3.76416C4.31645 7.15496 4.76416 7.60268 4.76416 8.15496V10.9664C4.76416 11.493 5.19105 11.9199 5.71765 11.9199C6.24424 11.9199 6.67113 11.493 6.67113 10.9664V8.15496C6.67113 7.60268 7.11885 7.15496 7.67113 7.15496H10.484C11.0106 7.15496 11.4375 6.72807 11.4375 6.20148C11.4375 5.67488 11.0106 5.24799 10.484 5.24799H7.67113C7.11885 5.24799 6.67113 4.80028 6.67113 4.24799V1.43591Z" fill="#582467"/>
</svg>
