<svg width="46" height="45" viewBox="0 0 46 45" fill="none" xmlns="http://www.w3.org/2000/svg">
<path d="M30.3913 20.415L23.6413 13.665C23.5358 13.5597 23.3928 13.5005 23.2438 13.5005C23.0947 13.5005 22.9518 13.5597 22.8463 13.665L16.0963 20.415C15.9969 20.5216 15.9428 20.6627 15.9454 20.8084C15.948 20.9541 16.007 21.0932 16.1101 21.1962C16.2131 21.2993 16.3522 21.3583 16.4979 21.3609C16.6436 21.3635 16.7847 21.3094 16.8913 21.21L22.6813 15.4209V30.5625C22.6813 30.7117 22.7405 30.8548 22.846 30.9602C22.9515 31.0657 23.0946 31.125 23.2438 31.125C23.393 31.125 23.536 31.0657 23.6415 30.9602C23.747 30.8548 23.8063 30.7117 23.8063 30.5625V15.4209L29.5963 21.21C29.7029 21.3094 29.8439 21.3635 29.9897 21.3609C30.1354 21.3583 30.2744 21.2993 30.3775 21.1962C30.4806 21.0932 30.5396 20.9541 30.5422 20.8084C30.5447 20.6627 30.4906 20.5216 30.3913 20.415Z" fill="#BC9DC5"/>
<rect x="0.5" y="-0.5" width="44" height="43" rx="21.5" transform="matrix(1 0 0 -1 0.742188 43.3125)" stroke="#BC9DC5"/>
</svg>
