<svg xmlns="http://www.w3.org/2000/svg" width="27" height="31" viewBox="0 0 27 31" fill="none">
<mask id="mask0_2781_4668" style="mask-type:luminance" maskUnits="userSpaceOnUse" x="0" y="0" width="27" height="31">
<path d="M26.5992 0.498779H0.206177V30.4346H26.5992V0.498779Z" fill="white"/>
</mask>
<g mask="url(#mask0_2781_4668)">
<path fill-rule="evenodd" clip-rule="evenodd" d="M21.6278 27.1272C21.5266 27.9764 21.3608 28.8167 21.1319 29.6411C21.0692 29.8698 20.9746 30.0888 20.8508 30.2915C21.5778 30.0536 22.2708 29.7235 22.9126 29.3094C25.3675 27.7296 26.5956 25.4853 26.5956 22.5588C26.5956 20.697 26.1119 19.023 25.1444 17.5369C24.1769 16.0509 22.5178 14.4288 20.1671 12.6709L19.0796 11.8669C17.4831 10.6746 16.3924 9.67296 15.8074 8.86195C15.217 8.04743 14.9242 7.18602 14.9242 6.2836C14.9242 5.09209 15.3418 4.12834 16.177 3.39234C17.0123 2.65634 18.1498 2.28599 19.5897 2.28131C21.4164 2.28131 22.8441 2.91652 23.8596 4.18459C24.5374 5.04131 24.8751 5.89099 24.8751 6.74653C24.8751 7.21532 25.0086 7.44972 25.2683 7.44972C25.5588 7.44972 25.6982 7.06062 25.6982 6.28829C25.6982 5.07295 25.7218 3.97833 25.7773 3.00676C25.8328 2.03519 25.8552 1.57695 25.8552 1.63086C25.8552 1.42108 25.6734 1.27106 25.305 1.16207C23.6074 0.728009 21.8622 0.504797 20.1093 0.497559C17.4169 0.497559 15.2355 1.18199 13.565 2.55086C11.8945 3.91973 11.0561 5.67808 11.0498 7.82592C11.0498 10.9567 12.9833 14.0214 16.8501 17.0201L18.6521 18.4147C21.2114 20.4071 22.4918 22.4776 22.4934 24.6262C22.5001 25.5333 22.1948 26.4156 21.6278 27.1272Z" fill="#E7414B"/>
<path fill-rule="evenodd" clip-rule="evenodd" d="M8.83695 12.2313V19.0604C8.83695 21.981 8.87631 23.9085 8.95503 24.8429C9.05776 26.2364 9.29393 27.0931 9.66354 27.4037C10.3177 27.9721 11.8953 28.2604 14.4058 28.2604C16.7828 28.2604 18.312 27.8947 18.9898 27.1763C19.5649 26.554 19.9026 25.7817 20.0124 24.8488C20.0667 24.4597 20.2049 24.2628 20.4411 24.2628C20.6524 24.2628 20.7564 24.4843 20.7564 24.9214C20.7618 26.4255 20.5632 27.9235 20.1659 29.375C20.0085 29.9219 19.6936 30.2449 19.2213 30.3442C19.0394 30.3981 18.5258 30.4215 17.6862 30.4215C15.5937 30.4215 13.3863 30.3825 11.064 30.3043C8.74169 30.2262 7.14716 30.1871 6.28043 30.1871C6.04426 30.1871 5.30623 30.2071 4.06635 30.2469C2.82646 30.2891 1.91958 30.3067 1.35041 30.3067C0.824938 30.3067 0.565152 30.1754 0.565152 29.9176C0.565152 29.7383 0.854459 29.6187 1.42953 29.566C1.82275 29.5121 2.21597 29.4769 2.60328 29.4488C3.20197 29.3175 3.5822 28.6108 3.73925 27.3181C3.8723 26.3196 3.93645 23.5733 3.93173 19.0791V12.2313C3.93173 7.60433 3.90575 4.86308 3.8538 4.00754C3.79948 3.05003 3.51489 2.40427 2.98824 2.06909C2.5714 1.81125 1.86408 1.67999 0.872171 1.67999C0.430537 1.67999 0.206177 1.56279 0.206177 1.3284C0.206177 1.094 0.502568 0.976807 1.07764 0.976807C1.75544 0.976807 2.75325 0.994387 4.05926 1.03658C5.36527 1.07877 6.16352 1.10924 6.44456 1.10924C6.70435 1.10924 7.52149 1.09166 8.89363 1.04947C10.2658 1.00728 11.2282 0.9897 11.7725 0.9897C12.3169 0.9897 12.5991 1.1069 12.5991 1.34129C12.5991 1.57569 12.3629 1.69289 11.8906 1.69289C11.3764 1.68765 10.8628 1.72686 10.3555 1.81008C9.46594 1.96635 8.9818 2.70235 8.90307 4.01809C8.85505 4.87753 8.83104 7.62074 8.83104 12.2477" fill="#582467"/>
</g>
</svg>